<svg height="512" viewBox="0 0 512 512" width="512" xmlns="http://www.w3.org/2000/svg"><g id="flat"><path d="m72 104h288v64h-288z" fill="#937057"/><path d="m168 128 8 40h48l8-40.485z" fill="#8dc79d"/><path d="m200 176a8 8 0 0 1 -8-8v-40a8 8 0 0 1 16 0v40a8 8 0 0 1 -8 8z" fill="#85bc94"/><path d="m72 168h288a0 0 0 0 1 0 0v284a36 36 0 0 1 -36 36h-216a36 36 0 0 1 -36-36v-284a0 0 0 0 1 0 0z" fill="#cd9c7a"/><path d="m352 272.464 8 56v7.536h40l1-7.536z" fill="#6b9777"/><path d="m401 328.464 7-56-48 56z" fill="#85bc94"/><path d="m240 88a23.882 23.882 0 0 0 -10.926 2.634 32 32 0 0 0 -58.148 0 24 24 0 1 0 7.378 36.881 31.981 31.981 0 0 0 43.392 0 24 24 0 1 0 18.304-39.515z" fill="#6b9777"/><path d="m72 168 48-32v32z" fill="#bd9070"/><path d="m72 104 48 32-48 32z" fill="#ac8366"/><path d="m360 168-48-32-8 32z" fill="#bd9070"/><path d="m360 104-48 32 48 32z" fill="#ac8366"/><path d="m286.612 80a8 8 0 0 1 -6.86-3.884l-24-40a8 8 0 0 1 13.72-8.232l9.14 15.234v-19.118a8 8 0 0 1 16 0v48a8 8 0 0 1 -8 8z" fill="#6b9777"/><path d="m286.6 80a8 8 0 0 1 -6.852-12.117l24-40a8 8 0 1 1 13.72 8.232l-24 40a8 8 0 0 1 -6.868 3.885z" fill="#85bc94"/><circle cx="128" cy="216" fill="#937057" r="16"/><circle cx="304" cy="216" fill="#937057" r="16"/><path d="m310.612 168h-48l-6.556-78.671a16 16 0 0 1 15.944-17.329h29.223a16 16 0 0 1 15.944 17.329z" fill="#fd9226"/><path d="m312 112h-17.388a8 8 0 0 1 0-16h17.388a8 8 0 0 1 0 16z" fill="#e08122"/><path d="m310.612 144h-16a8 8 0 0 1 0-16h16a8 8 0 0 1 0 16z" fill="#e08122"/><path d="m216 312a96.108 96.108 0 0 1 -96-96 8 8 0 0 1 16 0 80 80 0 0 0 160 0 8 8 0 0 1 16 0 96.108 96.108 0 0 1 -96 96z" fill="#ac8366"/><rect fill="#fbb540" height="159.536" rx="39" width="112" x="328" y="328.464"/><g fill="#c38325"><path d="m376 354.807h16v16h-16z" transform="matrix(.707 -.707 .707 .707 -144.073 377.781)"/><path d="m376 386.807h16v16h-16z" transform="matrix(.707 -.707 .707 .707 -166.699 387.153)"/><path d="m376 418.807h16v16h-16z" transform="matrix(.707 -.707 .707 .707 -189.326 396.525)"/><path d="m376 450.807h16v16h-16z" transform="matrix(.707 -.707 .707 .707 -211.953 405.898)"/><path d="m405.657 354.807h16v16h-16z" transform="matrix(.707 -.707 .707 .707 -135.387 398.751)"/><path d="m405.657 386.807h16v16h-16z" transform="matrix(.707 -.707 .707 .707 -158.014 408.123)"/><path d="m405.657 418.807h16v16h-16z" transform="matrix(.707 -.707 .707 .707 -180.641 417.496)"/><path d="m405.657 450.807h16v16h-16z" transform="matrix(.707 -.707 .707 .707 -203.268 426.868)"/><path d="m346.343 354.807h16v16h-16z" transform="matrix(.707 -.707 .707 .707 -152.758 356.811)"/><path d="m346.343 386.807h16v16h-16z" transform="matrix(.707 -.707 .707 .707 -175.385 366.183)"/><path d="m346.343 418.807h16v16h-16z" transform="matrix(.707 -.707 .707 .707 -198.012 375.555)"/><path d="m346.343 450.807h16v16h-16z" transform="matrix(.707 -.707 .707 .707 -220.639 384.928)"/></g><path d="m190.767 488a13.649 13.649 0 0 1 -12.208-7.545 4.726 4.726 0 0 0 -8.455 0 13.649 13.649 0 0 1 -12.204 7.545 13.648 13.648 0 0 1 -11.574-6.415l-17.811-28.485a56.024 56.024 0 0 1 -.531-58.515 21.79 21.79 0 0 1 18.685-10.585 21.788 21.788 0 0 1 18.131 9.7 11.455 11.455 0 0 0 19.062 0 21.791 21.791 0 0 1 18.132-9.7 21.79 21.79 0 0 1 18.685 10.58 56.021 56.021 0 0 1 -.532 58.515l-17.806 28.49a13.648 13.648 0 0 1 -11.574 6.415z" fill="#dc4d41"/><path d="m132.663 336h22.366a18 18 0 0 1 14.977 8.015l10.657 15.985h-22.363a18 18 0 0 1 -14.977-8.015z" fill="#85bc94"/><path d="m172.663 424a8 8 0 0 1 -8-8v-18.2a98.09 98.09 0 0 1 19.226-58.545 8 8 0 0 1 12.885 9.486 82.2 82.2 0 0 0 -16.111 49.059v18.2a8 8 0 0 1 -8 8z" fill="#6b9777"/><path d="m174.332 423.975a43.8 43.8 0 0 1 -19.578-4.6 8 8 0 0 1 7.155-14.312 27.906 27.906 0 0 0 24.845 0 8 8 0 0 1 7.155 14.312 43.8 43.8 0 0 1 -19.577 4.6z" fill="#c7463b"/><path d="m374.668 428.5-19.428-2.428a231.837 231.837 0 0 1 -83.84-27.387l-13.8-7.667a49.23 49.23 0 0 0 -39.477-3.669l-3.454 1.151 2.2 11a49.232 49.232 0 0 0 34.131 37.5 170.409 170.409 0 0 0 102.85-1.558z" fill="#f9bd25"/><path d="m381.344 428.724a231.849 231.849 0 0 1 -68.8-55.189l-10.212-12.042a49.231 49.231 0 0 0 -35.648-17.353l-3.639-.14-1.819 11.068a49.23 49.23 0 0 0 18.714 47.125 170.4 170.4 0 0 0 96.796 34.807l2.368.092a4.441 4.441 0 0 0 2.24-8.368z" fill="#f0b724"/><path d="m234.056 474.086a174.2 174.2 0 0 0 129.544 2.762l6.569-2.471a43.325 43.325 0 0 0 27.992-43.2l14.5-24.935-24.935-14.5-14.011 32.919-31.895 11.739a124.9 124.9 0 0 1 -92.06-2.287l-3.98-1.694a42.724 42.724 0 0 0 -32.7-.317 8.212 8.212 0 0 0 -4.76 10.091l1.729 5.466a42.719 42.719 0 0 0 24.007 26.427z" fill="#ffc226"/></g></svg>